<svg xmlns="http://www.w3.org/2000/svg" viewBox="0 0 841.9 595.3">
  <g fill="none" stroke="#61DAFB" stroke-width="40">
    <path d="M666.3 296.5c0 56-45.5 101.5-101.5 101.5S463.3 352.5 463.3 296.5s45.5-101.5 101.5-101.5 101.5 45.5 101.5 101.5z"/>
    <path d="M666.3 296.5c0 56-45.5 101.5-101.5 101.5S463.3 352.5 463.3 296.5s45.5-101.5 101.5-101.5 101.5 45.5 101.5 101.5z" transform="rotate(60 420.9 296.5)"/>
    <path d="M666.3 296.5c0 56-45.5 101.5-101.5 101.5S463.3 352.5 463.3 296.5s45.5-101.5 101.5-101.5 101.5 45.5 101.5 101.5z" transform="rotate(120 420.9 296.5)"/>
  </g>
  <circle cx="420.9" cy="296.5" r="45.7" fill="#61DAFB"/>
</svg>
